<svg width="18" height="18" viewBox="0 0 18 18" xmlns="http://www.w3.org/2000/svg">
  <g clip-path="url(#clip0_616_4847)">
    <path
      d="M16.1712 2.69995H1.8288L9 8.27815L16.1712 2.69995ZM10.3815 10.0539C9.98653 10.3611 9.5004 10.5279 9 10.5279C8.4996 10.5279 8.01347 10.3611 7.6185 10.0539L0 4.12825V13.7907C0 13.9877 0.0388064 14.1828 0.114204 14.3648C0.189601 14.5468 0.300112 14.7122 0.439428 14.8515C0.578743 14.9908 0.744135 15.1013 0.92616 15.1767C1.10818 15.2521 1.30328 15.2909 1.5003 15.2909H16.4997C16.8976 15.2909 17.2792 15.1329 17.5606 14.8515C17.8419 14.5702 18 14.1886 18 13.7907V4.12825L10.3815 10.0539Z" fill="#A19F9D" />
  </g>
  <defs>
    <clipPath id="clip0_616_4847">
      <rect width="18" height="18" fill="white" />
    </clipPath>
  </defs>
</svg>