<svg width="18" height="18" viewBox="0 0 18 18" fill="none" xmlns="http://www.w3.org/2000/svg">
<path d="M9 0.25C7.26942 0.25 5.57769 0.763179 4.13876 1.72464C2.69983 2.6861 1.57832 4.05267 0.916058 5.65152C0.253791 7.25037 0.080512 9.00971 0.418133 10.707C0.755753 12.4044 1.58911 13.9635 2.81282 15.1872C4.03653 16.4109 5.59563 17.2442 7.29296 17.5819C8.9903 17.9195 10.7496 17.7462 12.3485 17.0839C13.9473 16.4217 15.3139 15.3002 16.2754 13.8612C17.2368 12.4223 17.75 10.7306 17.75 9C17.75 6.67936 16.8281 4.45376 15.1872 2.81282C13.5462 1.17187 11.3206 0.25 9 0.25ZM9 16.5C7.51664 16.5 6.0666 16.0601 4.83323 15.236C3.59986 14.4119 2.63856 13.2406 2.07091 11.8701C1.50325 10.4997 1.35473 8.99168 1.64411 7.53682C1.9335 6.08197 2.64781 4.74559 3.6967 3.6967C4.7456 2.64781 6.08197 1.9335 7.53683 1.64411C8.99168 1.35472 10.4997 1.50325 11.8701 2.0709C13.2406 2.63856 14.4119 3.59985 15.236 4.83322C16.0601 6.06659 16.5 7.51664 16.5 9C16.5 10.9891 15.7098 12.8968 14.3033 14.3033C12.8968 15.7098 10.9891 16.5 9 16.5ZM5.875 9C5.62778 9 5.3861 8.92669 5.18054 8.78934C4.97498 8.65199 4.81476 8.45676 4.72015 8.22835C4.62555 7.99995 4.60079 7.74861 4.64902 7.50614C4.69725 7.26366 4.81631 7.04093 4.99112 6.86612C5.16594 6.6913 5.38867 6.57225 5.63114 6.52402C5.87362 6.47579 6.12495 6.50054 6.35336 6.59515C6.58177 6.68976 6.77699 6.84998 6.91434 7.05554C7.05169 7.2611 7.125 7.50277 7.125 7.75C7.125 8.08152 6.99331 8.39946 6.75889 8.63388C6.52447 8.8683 6.20652 9 5.875 9ZM13.375 7.75C13.375 7.99723 13.3017 8.2389 13.1643 8.44446C13.027 8.65002 12.8318 8.81024 12.6034 8.90485C12.375 8.99946 12.1236 9.02421 11.8811 8.97598C11.6387 8.92775 11.4159 8.8087 11.2411 8.63388C11.0663 8.45907 10.9473 8.23634 10.899 7.99386C10.8508 7.75139 10.8755 7.50005 10.9702 7.27165C11.0648 7.04324 11.225 6.84801 11.4305 6.71066C11.6361 6.57331 11.8778 6.5 12.125 6.5C12.4565 6.5 12.7745 6.6317 13.0089 6.86612C13.2433 7.10054 13.375 7.41848 13.375 7.75ZM12.5625 12.4688C12.6341 12.5225 12.6934 12.591 12.7363 12.6696C12.7791 12.7482 12.8046 12.8351 12.8109 12.9244C12.8173 13.0138 12.8044 13.1034 12.773 13.1873C12.7417 13.2712 12.6928 13.3474 12.6294 13.4107C12.5661 13.474 12.4899 13.523 12.4061 13.5543C12.3222 13.5856 12.2325 13.5985 12.1432 13.5922C12.0539 13.5858 11.967 13.5604 11.8883 13.5175C11.8097 13.4746 11.7412 13.4154 11.6875 13.3438C10.0469 11.7188 7.9375 11.7188 6.3125 13.3438C6.19215 13.434 6.04327 13.4778 5.8932 13.4672C5.74313 13.4565 5.60194 13.3921 5.49556 13.2857C5.38918 13.1793 5.32474 13.0381 5.31408 12.8881C5.30341 12.738 5.34724 12.5891 5.4375 12.4688C7.5625 10.3281 10.4375 10.3281 12.5625 12.4688Z" fill="#383838"/>
</svg>
