<svg width="12" height="16" viewBox="0 0 12 16" fill="none" xmlns="http://www.w3.org/2000/svg">
<path d="M4.586 7.65621C4.45541 7.52046 4.34465 7.36694 4.257 7.20021C4.34465 7.36694 4.45541 7.52046 4.586 7.65621ZM6 0.263207C7.5913 0.263207 9.11742 0.895348 10.2426 2.02057C11.3679 3.14578 12 4.67191 12 6.26321C12 4.67191 11.3679 3.14578 10.2426 2.02057C9.11742 0.895348 7.5913 0.263207 6 0.263207C4.4087 0.263207 2.88258 0.895348 1.75736 2.02057C0.632141 3.14578 2.37122e-08 4.67191 0 6.26321C0 4.67191 0.632141 3.14578 1.75736 2.02057C2.88258 0.895348 4.4087 0.263207 6 0.263207ZM7.743 7.20021C7.65526 7.36512 7.54486 7.51693 7.415 7.65121C7.54486 7.51693 7.65526 7.36512 7.743 7.20021ZM6 4.24121C6.53043 4.24121 7.03914 4.45192 7.41421 4.82699C7.78929 5.20207 8 5.71077 8 6.24121C8 5.71077 7.78929 5.20207 7.41421 4.82699C7.03914 4.45192 6.53043 4.24121 6 4.24121C5.46957 4.24121 4.96086 4.45192 4.58579 4.82699C4.21071 5.20207 4 5.71077 4 6.24121C4 5.71077 4.21071 5.20207 4.58579 4.82699C4.96086 4.45192 5.46957 4.24121 6 4.24121ZM6.545 15.3762C6.887 14.9942 7.334 14.4872 7.745 13.9912C8.345 13.2692 9.045 12.3532 9.721 11.3822C9.049 12.3532 8.341 13.2692 7.745 13.9912C7.334 14.4862 6.887 14.9942 6.545 15.3762ZM0.0350001 6.61021C0.16795 7.5138 0.466624 8.38508 0.916 9.18021C1.105 9.54121 1.325 9.90521 1.549 10.2682C1.325 9.90021 1.1 9.54021 0.916 9.18021C0.466561 8.38511 0.167883 7.51382 0.0350001 6.61021ZM6.235 15.6712C6.16345 15.7126 6.08263 15.7353 6 15.7372C6.08195 15.735 6.16205 15.7123 6.233 15.6712H6.235ZM3.8 13.4252C3.3 12.8002 2.774 12.1002 2.255 11.3482C2.778 12.1002 3.306 12.8002 3.8 13.4252ZM5.391 15.3062L5.631 15.5732C5.67772 15.6247 5.73467 15.6659 5.79821 15.6941C5.86174 15.7224 5.93047 15.737 6 15.7372C5.93047 15.737 5.86174 15.7224 5.79821 15.6941C5.73467 15.6659 5.67772 15.6247 5.631 15.5732L5.391 15.3062ZM0.0350001 6.61021C0.167883 7.51382 0.466561 8.38511 0.916 9.18021C1.105 9.54121 1.325 9.90521 1.549 10.2682C1.773 10.6312 2.012 10.9922 2.258 11.3482C2.778 12.1002 3.3 12.8002 3.8 13.4252L4.254 13.9922C4.636 14.4552 5.054 14.9322 5.388 15.3062L5.628 15.5732C5.70062 15.6573 5.80036 15.7133 5.90994 15.7315C6.01952 15.7498 6.13204 15.7292 6.228 15.6732C6.27886 15.6481 6.3249 15.6143 6.364 15.5732L6.54 15.3732C6.882 14.9912 7.329 14.4832 7.74 13.9872C8.34 13.2652 9.04 12.3502 9.716 11.3782C10.2146 10.6728 10.6704 9.93816 11.081 9.17821C11.6072 8.28967 11.9216 7.29188 12 6.26221C12 4.67091 11.3679 3.14478 10.2426 2.01957C9.11742 0.894348 7.5913 0.262207 6 0.262207C4.4087 0.262207 2.88258 0.894348 1.75736 2.01957C0.632141 3.14478 0 4.67091 0 6.26221L0.0350001 6.61021ZM6 4.24121C6.26264 4.24121 6.52272 4.29294 6.76537 4.39345C7.00802 4.49396 7.2285 4.64128 7.41421 4.82699C7.59993 5.01271 7.74725 5.23319 7.84776 5.47584C7.94827 5.71849 8 5.97856 8 6.24121C8 6.77164 7.78929 7.28035 7.41421 7.65542C7.03914 8.03049 6.53043 8.24121 6 8.24121C5.46957 8.24121 4.96086 8.03049 4.58579 7.65542C4.21071 7.28035 4 6.77164 4 6.24121C4 5.71077 4.21071 5.20207 4.58579 4.82699C4.96086 4.45192 5.46957 4.24121 6 4.24121Z" fill="#A19F9D"/>
</svg>
