<svg width="80" height="80" viewBox="0 0 80 80" fill="none" xmlns="http://www.w3.org/2000/svg">
<g filter="url(#filter0_d)">
<circle cx="40" cy="34" r="24" fill="#4F6BED"/>
</g>
<path d="M51.6125 34.7738H31.4835V23.9351C31.4835 23.5244 31.3204 23.1306 31.03 22.8402C30.7396 22.5499 30.3458 22.3867 29.9351 22.3867C29.5244 22.3867 29.1306 22.5499 28.8402 22.8402C28.5499 23.1306 28.3867 23.5244 28.3867 23.9351V44.0641C28.3867 44.4748 28.5499 44.8686 28.8402 45.159C29.1306 45.4494 29.5244 45.6125 29.9351 45.6125C30.3458 45.6125 30.7396 45.4494 31.03 45.159C31.3204 44.8686 31.4835 44.4748 31.4835 44.0641V40.9674H50.0641V44.0641C50.0641 44.4748 50.2273 44.8686 50.5177 45.159C50.808 45.4494 51.2019 45.6125 51.6125 45.6125C52.0232 45.6125 52.417 45.4494 52.7074 45.159C52.9978 44.8686 53.1609 44.4748 53.1609 44.0641V36.3222C53.1609 35.9115 52.9978 35.5177 52.7074 35.2273C52.417 34.9369 52.0232 34.7738 51.6125 34.7738ZM34.1932 31.677H40.7738C40.7738 30.4451 40.2844 29.2636 39.4133 28.3924C38.5421 27.5213 37.3606 27.0319 36.1287 27.0319H34.1932C33.8852 27.0319 33.5898 27.1542 33.372 27.372C33.1542 27.5898 33.0319 27.8852 33.0319 28.1932V30.5158C33.0319 30.8237 33.1542 31.1191 33.372 31.3369C33.5898 31.5547 33.8852 31.677 34.1932 31.677Z" fill="white"/>
<defs>
<filter id="filter0_d" x="0.516129" y="0.709677" width="78.9677" height="78.9677" filterUnits="userSpaceOnUse" color-interpolation-filters="sRGB">
<feFlood flood-opacity="0" result="BackgroundImageFix"/>
<feColorMatrix in="SourceAlpha" type="matrix" values="0 0 0 0 0 0 0 0 0 0 0 0 0 0 0 0 0 0 127 0"/>
<feOffset dy="6.19355"/>
<feGaussianBlur stdDeviation="7.74194"/>
<feColorMatrix type="matrix" values="0 0 0 0 0 0 0 0 0 0 0 0 0 0 0 0 0 0 0.25 0"/>
<feBlend mode="normal" in2="BackgroundImageFix" result="effect1_dropShadow"/>
<feBlend mode="normal" in="SourceGraphic" in2="effect1_dropShadow" result="shape"/>
</filter>
</defs>
</svg>