<svg width="16" height="16" viewBox="0 0 16 16" fill="none" xmlns="http://www.w3.org/2000/svg">
<path d="M15.5564 0H4.88975C4.64424 0 4.44531 0.198933 4.44531 0.444444V11.1111C4.44531 11.3566 4.64424 11.5556 4.88975 11.5556H15.5564C15.8019 11.5556 16.0008 11.3566 16.0008 11.1111V0.444444C16.0008 0.198933 15.8019 0 15.5564 0ZM15.1119 10.6667H5.3342V0.888889H15.1119V10.6667Z" fill="#444444"/>
<path d="M0.758707 9.46342C0.585019 9.28973 0.303776 9.28973 0.130266 9.46342C-0.0432442 9.63711 -0.043422 9.91835 0.130266 10.0919L1.46359 11.4252C1.55035 11.5121 1.66395 11.5555 1.77772 11.5555C1.8915 11.5555 2.0051 11.5121 2.09203 11.4254L3.42536 10.092C3.59905 9.91835 3.59905 9.63711 3.42536 9.4636C3.25167 9.29009 2.97043 9.28991 2.79692 9.4636L2.22217 10.0382V1.51729L2.79674 2.09187C2.88367 2.1788 2.99727 2.22218 3.11105 2.22218C3.22483 2.22218 3.33843 2.1788 3.42536 2.09204C3.59905 1.91836 3.59905 1.63711 3.42536 1.4636L2.09203 0.130267C1.91834 -0.0434222 1.6371 -0.0434222 1.46359 0.130267L0.130266 1.4636C-0.043422 1.63729 -0.043422 1.91853 0.130266 2.09204C0.303954 2.26556 0.585197 2.26573 0.758707 2.09204L1.33328 1.51747V10.0384L0.758707 9.46342Z" fill="#444444"/>
<path d="M14.5355 12.5746C14.3618 12.4009 14.0806 12.4009 13.9071 12.5746C13.7336 12.7483 13.7334 13.0295 13.9071 13.203L14.4817 13.7776H5.96082L6.53539 13.203C6.70908 13.0294 6.70908 12.7481 6.53539 12.5746C6.3617 12.4011 6.08046 12.4009 5.90695 12.5746L4.57363 13.9079C4.39994 14.0816 4.39994 14.3629 4.57363 14.5364L5.90695 15.8697C5.99388 15.9566 6.10748 16 6.22126 16C6.33504 16 6.44864 15.9566 6.53557 15.8699C6.70926 15.6962 6.70926 15.415 6.53557 15.2414L5.96082 14.6667H14.4817L13.9071 15.2413C13.7334 15.415 13.7334 15.6962 13.9071 15.8697C13.9938 15.9566 14.1074 16 14.2212 16C14.335 16 14.4486 15.9566 14.5355 15.8699L15.8689 14.5366C16.0425 14.3629 16.0425 14.0816 15.8689 13.9081L14.5355 12.5746Z" fill="#444444"/>
</svg>
