<svg width="16" height="16" viewBox="0 0 16 16" fill="none" xmlns="http://www.w3.org/2000/svg">
<path d="M11.9381 10.4102L11.5641 10.7832C11.3444 11.0025 11.0466 11.1257 10.7361 11.1257C10.4256 11.1257 10.1278 11.0025 9.90811 10.7832L5.26311 6.13218C5.03326 5.90178 4.90418 5.58962 4.90418 5.26418C4.90418 4.93874 5.03326 4.62658 5.26311 4.39618L5.59511 4.06318C5.87571 3.78197 6.03329 3.40094 6.03329 3.00368C6.03329 2.60642 5.87571 2.22539 5.59511 1.94418L4.08311 0.43918C3.80182 0.157973 3.42036 0 3.02261 0C2.62487 0 2.24341 0.157973 1.96211 0.43918L1.67111 0.72918C0.670114 1.73018 0.525114 3.40018 1.10011 5.28518C1.86305 7.51251 3.14702 9.52537 4.84511 11.1562C6.47635 12.8535 8.4891 14.1371 10.7161 14.9002C12.6031 15.4752 14.2701 15.3302 15.2711 14.3282L15.5611 14.0382C15.7005 13.8989 15.8111 13.7335 15.8865 13.5514C15.962 13.3694 16.0008 13.1742 16.0008 12.9772C16.0008 12.7801 15.962 12.585 15.8865 12.4029C15.8111 12.2209 15.7005 12.0555 15.5611 11.9162L14.0561 10.4112C13.775 10.1312 13.3944 9.974 12.9976 9.974C12.6008 9.974 12.2202 10.1312 11.9391 10.4112L11.9381 10.4102Z" fill="#A19F9D"/>
</svg>
