<svg width="20" height="20" viewBox="0 0 20 20" fill="none" xmlns="http://www.w3.org/2000/svg">
<path d="M10 0C8.02219 0 6.08879 0.58649 4.4443 1.6853C2.79981 2.78412 1.51809 4.3459 0.761209 6.17316C0.00433286 8.00043 -0.1937 10.0111 0.192152 11.9509C0.578004 13.8907 1.53041 15.6725 2.92894 17.0711C4.32746 18.4696 6.10929 19.422 8.0491 19.8078C9.98891 20.1937 11.9996 19.9957 13.8268 19.2388C15.6541 18.4819 17.2159 17.2002 18.3147 15.5557C19.4135 13.9112 20 11.9778 20 10C20 7.34783 18.9464 4.8043 17.0711 2.92893C15.1957 1.05357 12.6522 0 10 0V0Z" fill="#FAF9F8"/>
<path d="M6.39114 11.7233L8.31296 13.6282C8.55323 13.8663 8.87905 14 9.21878 14C9.55852 14 9.88434 13.8663 10.1246 13.6282L14.6089 9.18339C14.7312 9.06624 14.8288 8.92611 14.896 8.77117C14.9631 8.61624 14.9985 8.4496 15 8.28097C15.0014 8.11235 14.969 7.94513 14.9046 7.78906C14.8402 7.63299 14.745 7.49119 14.6247 7.37196C14.5044 7.25272 14.3614 7.15842 14.2039 7.09457C14.0465 7.03071 13.8778 6.99858 13.7077 7.00005C13.5375 7.00151 13.3694 7.03655 13.2131 7.1031C13.0568 7.16966 12.9154 7.26641 12.7972 7.3877L9.21878 10.9346L8.20278 9.92758C8.08459 9.80628 7.94322 9.70954 7.7869 9.64298C7.63059 9.57642 7.46247 9.54139 7.29235 9.53993C7.12223 9.53846 6.95352 9.57059 6.79606 9.63445C6.63861 9.6983 6.49556 9.7926 6.37526 9.91183C6.25496 10.0311 6.15983 10.1729 6.09541 10.3289C6.03099 10.485 5.99857 10.6522 6.00005 10.8209C6.00153 10.9895 6.03687 11.1561 6.10402 11.3111C6.17117 11.466 6.26877 11.6061 6.39114 11.7233V11.7233Z" fill="#7A7574"/>
</svg>
